<mxfile host="app.diagrams.net" agent="Mozilla/5.0 (Windows NT 10.0; Win64; x64; rv:128.0) Gecko/20100101 Firefox/128.0" version="24.7.5">
  <diagram name="Page-1" id="4KZJ9ozn9lXyR2gkDZFs">
    <mxGraphModel dx="794" dy="386" grid="1" gridSize="10" guides="1" tooltips="1" connect="1" arrows="1" fold="1" page="1" pageScale="1" pageWidth="850" pageHeight="1100" math="0" shadow="0">
      <root>
        <mxCell id="0" />
        <mxCell id="1" parent="0" />
        <mxCell id="9xcHes1UZk4AMDX8wHXI-2" value="Main.py" style="rounded=0;whiteSpace=wrap;html=1;" parent="1" vertex="1">
          <mxGeometry x="720" y="20" width="120" height="60" as="geometry" />
        </mxCell>
        <mxCell id="9xcHes1UZk4AMDX8wHXI-4" value="" style="rounded=0;whiteSpace=wrap;html=1;" parent="1" vertex="1">
          <mxGeometry x="120" y="140" width="1470" height="400" as="geometry" />
        </mxCell>
        <mxCell id="9xcHes1UZk4AMDX8wHXI-5" value="" style="rounded=0;whiteSpace=wrap;html=1;" parent="1" vertex="1">
          <mxGeometry x="120" y="120" width="80" height="20" as="geometry" />
        </mxCell>
        <mxCell id="9xcHes1UZk4AMDX8wHXI-7" value="Adapter Layer" style="text;html=1;align=center;verticalAlign=middle;whiteSpace=wrap;rounded=0;" parent="1" vertex="1">
          <mxGeometry x="20" y="310" width="90" height="30" as="geometry" />
        </mxCell>
        <mxCell id="9xcHes1UZk4AMDX8wHXI-29" style="edgeStyle=orthogonalEdgeStyle;rounded=0;orthogonalLoop=1;jettySize=auto;html=1;strokeColor=none;" parent="1" source="9xcHes1UZk4AMDX8wHXI-8" target="9xcHes1UZk4AMDX8wHXI-4" edge="1">
          <mxGeometry relative="1" as="geometry" />
        </mxCell>
        <mxCell id="9xcHes1UZk4AMDX8wHXI-8" value="Content Adapter" style="swimlane;whiteSpace=wrap;html=1;" parent="1" vertex="1">
          <mxGeometry x="470" y="160" width="280" height="290" as="geometry">
            <mxRectangle x="420" y="170" width="130" height="30" as="alternateBounds" />
          </mxGeometry>
        </mxCell>
        <mxCell id="9xcHes1UZk4AMDX8wHXI-9" value="&lt;div align=&quot;left&quot;&gt;+ create_delivery(): Exception&lt;/div&gt;&lt;div align=&quot;left&quot;&gt;+ update_delivery(): Exception&lt;div align=&quot;left&quot;&gt;+ get_delivery(): Exception&lt;/div&gt;&lt;div align=&quot;left&quot;&gt;+ get_all_deliveries(): Exception&lt;/div&gt;&lt;/div&gt;&lt;div align=&quot;left&quot;&gt;&amp;nbsp;&amp;nbsp; get_open_deliveries(): Exception&lt;/div&gt;&lt;div align=&quot;left&quot;&gt;&amp;nbsp;&amp;nbsp; get_user_deliveries(): Exception&lt;/div&gt;&lt;div align=&quot;left&quot;&gt;&amp;nbsp;&amp;nbsp; get_complete_deliveries(): Exception&lt;/div&gt;&lt;div align=&quot;left&quot;&gt;&amp;nbsp;&amp;nbsp; archive_delivery(): Exception&lt;/div&gt;&lt;div align=&quot;left&quot;&gt;&amp;nbsp;&amp;nbsp; create_order(): Exception&lt;/div&gt;&lt;div align=&quot;left&quot;&gt;&amp;nbsp;&amp;nbsp; update_order(): Exception&lt;/div&gt;&lt;div align=&quot;left&quot;&gt;&amp;nbsp;&amp;nbsp; partial_update_order(): Exception&lt;/div&gt;&lt;div align=&quot;left&quot;&gt;&amp;nbsp;&amp;nbsp; get_orders(): Exception&lt;/div&gt;&lt;div align=&quot;left&quot;&gt;&amp;nbsp;&amp;nbsp; get_dispatch(): Exception&lt;/div&gt;&lt;div align=&quot;left&quot;&gt;&amp;nbsp;&amp;nbsp; partial_update_order(): Exception&lt;/div&gt;&lt;div align=&quot;left&quot;&gt;&amp;nbsp;&amp;nbsp; update_order(): Exception&lt;br&gt;&lt;/div&gt;&lt;div align=&quot;left&quot;&gt;&lt;br&gt;&lt;/div&gt;&lt;div align=&quot;left&quot;&gt;&lt;br&gt;&lt;/div&gt;&lt;div align=&quot;left&quot;&gt;&lt;br&gt;&lt;/div&gt;&lt;div align=&quot;left&quot;&gt;&lt;br&gt;&lt;/div&gt;&lt;div align=&quot;left&quot;&gt;&lt;br&gt;&lt;/div&gt;" style="text;html=1;align=left;verticalAlign=middle;whiteSpace=wrap;rounded=0;" parent="9xcHes1UZk4AMDX8wHXI-8" vertex="1">
          <mxGeometry x="10" y="80" width="270" height="210" as="geometry" />
        </mxCell>
        <mxCell id="9xcHes1UZk4AMDX8wHXI-205" style="edgeStyle=orthogonalEdgeStyle;rounded=0;orthogonalLoop=1;jettySize=auto;html=1;entryX=0;entryY=0.5;entryDx=0;entryDy=0;dashed=1;endArrow=block;endFill=0;endSize=4;startSize=0;" parent="1" target="9xcHes1UZk4AMDX8wHXI-19" edge="1">
          <mxGeometry relative="1" as="geometry">
            <mxPoint x="1150" y="270" as="sourcePoint" />
            <Array as="points">
              <mxPoint x="1170" y="265" />
              <mxPoint x="1170" y="265" />
            </Array>
          </mxGeometry>
        </mxCell>
        <mxCell id="9xcHes1UZk4AMDX8wHXI-209" value="Implements" style="edgeLabel;html=1;align=center;verticalAlign=middle;resizable=0;points=[];" parent="9xcHes1UZk4AMDX8wHXI-205" vertex="1" connectable="0">
          <mxGeometry x="-0.3619" relative="1" as="geometry">
            <mxPoint x="18" y="-15" as="offset" />
          </mxGeometry>
        </mxCell>
        <mxCell id="9xcHes1UZk4AMDX8wHXI-16" value="&lt;div&gt;&amp;lt;&amp;lt;Interface&amp;gt;&amp;gt;&lt;/div&gt;&lt;div&gt;IRequest&lt;br&gt;&lt;/div&gt;" style="swimlane;whiteSpace=wrap;html=1;startSize=30;" parent="1" vertex="1">
          <mxGeometry x="840" y="160" width="310" height="290" as="geometry" />
        </mxCell>
        <mxCell id="9xcHes1UZk4AMDX8wHXI-17" value="&lt;div align=&quot;left&quot;&gt;+ create_delivery_subscription: Exception&lt;/div&gt;&lt;div align=&quot;left&quot;&gt;+ update_delivery_subscription: Exception&lt;/div&gt;&lt;div align=&quot;left&quot;&gt;&lt;div align=&quot;left&quot;&gt;+ get_delivery_subscription: Exception&lt;/div&gt;&lt;div align=&quot;left&quot;&gt;&lt;div align=&quot;left&quot;&gt;+ get_all_deliveries_subscription: Exception&lt;/div&gt;&lt;/div&gt;&lt;/div&gt;&lt;div align=&quot;left&quot;&gt;&amp;nbsp;&amp;nbsp; get_open_deliveries_subscription: Exception&lt;/div&gt;&lt;div align=&quot;left&quot;&gt;&amp;nbsp;&amp;nbsp; get_user_deliveries_subscription: Exception&lt;/div&gt;&lt;div align=&quot;left&quot;&gt;&amp;nbsp;&amp;nbsp; get_complete_deliveries_subscription: Exception&lt;/div&gt;&lt;div align=&quot;left&quot;&gt;&amp;nbsp;&amp;nbsp; archive_delivery_subscription: Exception&lt;/div&gt;&lt;div align=&quot;left&quot;&gt;&amp;nbsp;&amp;nbsp; create_order_subscription: Exception&lt;/div&gt;&lt;div align=&quot;left&quot;&gt;&amp;nbsp;&amp;nbsp; update_order_subscription: Exception&lt;/div&gt;&lt;div align=&quot;left&quot;&gt;&amp;nbsp;&amp;nbsp; partial_update_order_subscription: Exception&lt;/div&gt;&lt;div align=&quot;left&quot;&gt;&amp;nbsp;&amp;nbsp; get_orders_subscription: Exception&lt;/div&gt;&lt;div align=&quot;left&quot;&gt;&amp;nbsp;&amp;nbsp; get_dispatch_subscription: Exception&lt;/div&gt;&lt;div align=&quot;left&quot;&gt;&amp;nbsp;&amp;nbsp; dispatch_order_subscription: Exception&lt;/div&gt;&lt;div align=&quot;left&quot;&gt;&amp;nbsp;&amp;nbsp; partial_update_order_subscription: Exception&lt;/div&gt;&lt;div align=&quot;left&quot;&gt;&amp;nbsp;&amp;nbsp; update_order_subscription: Exception&lt;br&gt;&lt;/div&gt;&lt;div align=&quot;left&quot;&gt;&lt;br&gt;&lt;/div&gt;&lt;div align=&quot;left&quot;&gt;&lt;br&gt;&lt;/div&gt;&lt;div align=&quot;left&quot;&gt;&lt;br&gt;&lt;/div&gt;&lt;div align=&quot;left&quot;&gt;&lt;br&gt;&lt;/div&gt;&lt;div align=&quot;left&quot;&gt;&lt;br&gt;&lt;br&gt;&lt;/div&gt;" style="text;html=1;align=center;verticalAlign=middle;whiteSpace=wrap;rounded=0;" parent="9xcHes1UZk4AMDX8wHXI-16" vertex="1">
          <mxGeometry x="-20" y="190" width="330" height="30" as="geometry" />
        </mxCell>
        <mxCell id="9xcHes1UZk4AMDX8wHXI-19" value="&lt;div&gt;&amp;lt;&amp;lt;Interface&amp;gt;&amp;gt;&lt;/div&gt;&lt;div&gt;IRest&lt;br&gt;&lt;/div&gt;" style="swimlane;whiteSpace=wrap;html=1;startSize=40;" parent="1" vertex="1">
          <mxGeometry x="1240" y="220" width="200" height="90" as="geometry" />
        </mxCell>
        <mxCell id="9xcHes1UZk4AMDX8wHXI-22" value="&lt;div align=&quot;left&quot;&gt;+ restRx(dict, kwargs): dict&lt;/div&gt;&lt;div align=&quot;left&quot;&gt;+ restRx(dict,kwargs): dict&lt;br&gt;&lt;/div&gt;" style="text;html=1;align=left;verticalAlign=middle;whiteSpace=wrap;rounded=0;" parent="9xcHes1UZk4AMDX8wHXI-19" vertex="1">
          <mxGeometry x="5" y="50" width="180" height="30" as="geometry" />
        </mxCell>
        <mxCell id="9xcHes1UZk4AMDX8wHXI-30" style="edgeStyle=orthogonalEdgeStyle;rounded=0;orthogonalLoop=1;jettySize=auto;html=1;entryX=0.4;entryY=0;entryDx=0;entryDy=0;entryPerimeter=0;exitX=0.5;exitY=0;exitDx=0;exitDy=0;dashed=1;" parent="1" source="9xcHes1UZk4AMDX8wHXI-8" target="9xcHes1UZk4AMDX8wHXI-19" edge="1">
          <mxGeometry relative="1" as="geometry">
            <Array as="points">
              <mxPoint x="610" y="110" />
              <mxPoint x="1320" y="110" />
            </Array>
          </mxGeometry>
        </mxCell>
        <mxCell id="9xcHes1UZk4AMDX8wHXI-33" value="Use" style="edgeLabel;html=1;align=center;verticalAlign=middle;resizable=0;points=[];" parent="9xcHes1UZk4AMDX8wHXI-30" vertex="1" connectable="0">
          <mxGeometry x="0.0668" y="2" relative="1" as="geometry">
            <mxPoint x="-84" y="2" as="offset" />
          </mxGeometry>
        </mxCell>
        <mxCell id="9xcHes1UZk4AMDX8wHXI-51" style="edgeStyle=orthogonalEdgeStyle;rounded=0;orthogonalLoop=1;jettySize=auto;html=1;dashed=1;" parent="1" target="9xcHes1UZk4AMDX8wHXI-9" edge="1">
          <mxGeometry relative="1" as="geometry">
            <mxPoint x="1230" y="460" as="sourcePoint" />
            <mxPoint x="560" y="450.26000000000005" as="targetPoint" />
            <Array as="points">
              <mxPoint x="1230" y="467" />
              <mxPoint x="615" y="467" />
            </Array>
          </mxGeometry>
        </mxCell>
        <mxCell id="9xcHes1UZk4AMDX8wHXI-53" value="create" style="edgeLabel;html=1;align=center;verticalAlign=middle;resizable=0;points=[];" parent="9xcHes1UZk4AMDX8wHXI-51" vertex="1" connectable="0">
          <mxGeometry x="0.8461" y="-5" relative="1" as="geometry">
            <mxPoint y="-1" as="offset" />
          </mxGeometry>
        </mxCell>
        <mxCell id="9xcHes1UZk4AMDX8wHXI-55" style="edgeStyle=orthogonalEdgeStyle;rounded=0;orthogonalLoop=1;jettySize=auto;html=1;dashed=1;" parent="1" edge="1">
          <mxGeometry relative="1" as="geometry">
            <mxPoint x="1150" y="340" as="targetPoint" />
            <mxPoint x="1287.5" y="400" as="sourcePoint" />
            <Array as="points">
              <mxPoint x="1288" y="340" />
            </Array>
          </mxGeometry>
        </mxCell>
        <mxCell id="9xcHes1UZk4AMDX8wHXI-195" value="Create" style="edgeLabel;html=1;align=center;verticalAlign=middle;resizable=0;points=[];" parent="9xcHes1UZk4AMDX8wHXI-55" vertex="1" connectable="0">
          <mxGeometry x="0.3041" y="1" relative="1" as="geometry">
            <mxPoint as="offset" />
          </mxGeometry>
        </mxCell>
        <mxCell id="9xcHes1UZk4AMDX8wHXI-37" value="&lt;div&gt;UsecaseFactory&lt;br&gt;&lt;/div&gt;" style="swimlane;whiteSpace=wrap;html=1;startSize=30;" parent="1" vertex="1">
          <mxGeometry x="1230" y="400" width="245" height="90" as="geometry" />
        </mxCell>
        <mxCell id="9xcHes1UZk4AMDX8wHXI-38" value="&lt;div align=&quot;left&quot;&gt;+ create_request(): RestAdapter&lt;br&gt;&lt;/div&gt;&lt;div align=&quot;left&quot;&gt;+ create_dispatchManager(): Exception&lt;br&gt;&lt;/div&gt;" style="text;html=1;align=left;verticalAlign=middle;whiteSpace=wrap;rounded=0;" parent="9xcHes1UZk4AMDX8wHXI-37" vertex="1">
          <mxGeometry x="5" y="40" width="225" height="30" as="geometry" />
        </mxCell>
        <mxCell id="9xcHes1UZk4AMDX8wHXI-43" value="&lt;div&gt;&amp;lt;&amp;lt;Interface&amp;gt;&amp;gt;&lt;/div&gt;&lt;div&gt;IAdapterFactory&lt;br&gt;&lt;/div&gt;" style="swimlane;whiteSpace=wrap;html=1;startSize=40;" parent="1" vertex="1">
          <mxGeometry x="250" y="230" width="200" height="90" as="geometry" />
        </mxCell>
        <mxCell id="9xcHes1UZk4AMDX8wHXI-44" value="&lt;div align=&quot;left&quot;&gt;+ create_order_entity()&lt;br&gt;&lt;/div&gt;&lt;div align=&quot;left&quot;&gt;+ create_dispatch_entity()&lt;br&gt;&lt;/div&gt;" style="text;html=1;align=left;verticalAlign=middle;whiteSpace=wrap;rounded=0;" parent="9xcHes1UZk4AMDX8wHXI-43" vertex="1">
          <mxGeometry x="5" y="50" width="180" height="30" as="geometry" />
        </mxCell>
        <mxCell id="9xcHes1UZk4AMDX8wHXI-47" style="edgeStyle=orthogonalEdgeStyle;rounded=0;orthogonalLoop=1;jettySize=auto;html=1;entryX=0.5;entryY=1;entryDx=0;entryDy=0;dashed=1;endArrow=block;endFill=0;" parent="1" source="9xcHes1UZk4AMDX8wHXI-45" target="9xcHes1UZk4AMDX8wHXI-43" edge="1">
          <mxGeometry relative="1" as="geometry" />
        </mxCell>
        <mxCell id="9xcHes1UZk4AMDX8wHXI-48" value="Implements" style="edgeLabel;html=1;align=center;verticalAlign=middle;resizable=0;points=[];" parent="9xcHes1UZk4AMDX8wHXI-47" vertex="1" connectable="0">
          <mxGeometry x="-0.0074" y="-2" relative="1" as="geometry">
            <mxPoint as="offset" />
          </mxGeometry>
        </mxCell>
        <mxCell id="-PNvxuVEAzfp6yEy6_G5-59" style="edgeStyle=orthogonalEdgeStyle;rounded=0;orthogonalLoop=1;jettySize=auto;html=1;entryX=0.007;entryY=0.151;entryDx=0;entryDy=0;entryPerimeter=0;dashed=1;" parent="1" source="9xcHes1UZk4AMDX8wHXI-45" target="9xcHes1UZk4AMDX8wHXI-166" edge="1">
          <mxGeometry relative="1" as="geometry">
            <mxPoint x="50" y="1662.857142857143" as="targetPoint" />
            <Array as="points">
              <mxPoint x="30" y="455" />
              <mxPoint x="30" y="1660" />
            </Array>
          </mxGeometry>
        </mxCell>
        <mxCell id="-PNvxuVEAzfp6yEy6_G5-60" value="Create" style="edgeLabel;html=1;align=center;verticalAlign=middle;resizable=0;points=[];" parent="-PNvxuVEAzfp6yEy6_G5-59" vertex="1" connectable="0">
          <mxGeometry x="-0.5359" y="3" relative="1" as="geometry">
            <mxPoint as="offset" />
          </mxGeometry>
        </mxCell>
        <mxCell id="9xcHes1UZk4AMDX8wHXI-45" value="&lt;div&gt;AdapterFactory&lt;br&gt;&lt;/div&gt;" style="swimlane;whiteSpace=wrap;html=1;startSize=30;" parent="1" vertex="1">
          <mxGeometry x="250" y="410" width="200" height="90" as="geometry" />
        </mxCell>
        <mxCell id="9xcHes1UZk4AMDX8wHXI-46" value="&lt;div align=&quot;left&quot;&gt;+ create_dispatch_entity()&lt;/div&gt;&lt;div align=&quot;left&quot;&gt;+ create_order_entity()&lt;br&gt;&lt;/div&gt;" style="text;html=1;align=left;verticalAlign=middle;whiteSpace=wrap;rounded=0;" parent="9xcHes1UZk4AMDX8wHXI-45" vertex="1">
          <mxGeometry x="10" y="40" width="180" height="30" as="geometry" />
        </mxCell>
        <mxCell id="9xcHes1UZk4AMDX8wHXI-58" value="" style="rounded=0;whiteSpace=wrap;html=1;" parent="1" vertex="1">
          <mxGeometry x="140" y="660" width="1450" height="860" as="geometry" />
        </mxCell>
        <mxCell id="9xcHes1UZk4AMDX8wHXI-59" value="" style="rounded=0;whiteSpace=wrap;html=1;" parent="1" vertex="1">
          <mxGeometry x="140" y="640" width="80" height="20" as="geometry" />
        </mxCell>
        <mxCell id="9xcHes1UZk4AMDX8wHXI-60" value="Usecase Layer" style="text;html=1;align=center;verticalAlign=middle;whiteSpace=wrap;rounded=0;" parent="1" vertex="1">
          <mxGeometry x="50" y="1090" width="90" height="30" as="geometry" />
        </mxCell>
        <mxCell id="9xcHes1UZk4AMDX8wHXI-61" value="&lt;div&gt;&amp;lt;&amp;lt;Interface&amp;gt;&amp;gt;&lt;/div&gt;&lt;div&gt;IDispatch&lt;br&gt;&lt;/div&gt;" style="swimlane;whiteSpace=wrap;html=1;startSize=40;" parent="1" vertex="1">
          <mxGeometry x="450" y="750" width="270" height="190" as="geometry" />
        </mxCell>
        <mxCell id="9xcHes1UZk4AMDX8wHXI-62" value="&lt;div align=&quot;left&quot;&gt;+ Create_delivery_callback(): Exception&lt;/div&gt;&lt;div align=&quot;left&quot;&gt;&lt;div align=&quot;left&quot;&gt;+ update_delivery_callback(): Exception&lt;/div&gt;&lt;div align=&quot;left&quot;&gt;&lt;div align=&quot;left&quot;&gt;+ get_delivery_callback(): Exception&lt;/div&gt;&lt;div align=&quot;left&quot;&gt;&lt;div align=&quot;left&quot;&gt;+ get_all_deliveries_callback(): Exception&lt;/div&gt;&lt;/div&gt;&lt;/div&gt;&lt;div align=&quot;left&quot;&gt;&amp;nbsp;&amp;nbsp; get_open_deliveries_callback(): Exception&lt;/div&gt;&lt;div align=&quot;left&quot;&gt;&amp;nbsp;&amp;nbsp; get_user_deliveries_callback(): Exception&lt;/div&gt;&lt;div align=&quot;left&quot;&gt;&amp;nbsp;&amp;nbsp; get_complete_deliveries_callback(): Exception&lt;/div&gt;&lt;div align=&quot;left&quot;&gt;&amp;nbsp;&amp;nbsp; archive_delivery_callback(): Exception&lt;/div&gt;&lt;div align=&quot;left&quot;&gt;&amp;nbsp;&amp;nbsp; &lt;br&gt;&lt;/div&gt;&lt;div align=&quot;left&quot;&gt;&lt;br&gt;&lt;/div&gt;&lt;div align=&quot;left&quot;&gt;&lt;br&gt;&lt;/div&gt;&lt;div align=&quot;left&quot;&gt;&lt;br&gt;&lt;/div&gt;&lt;div align=&quot;left&quot;&gt;&lt;br&gt;&lt;/div&gt;&lt;div align=&quot;left&quot;&gt;&lt;br&gt;&lt;br&gt;&lt;/div&gt;&lt;/div&gt;" style="text;html=1;align=left;verticalAlign=middle;whiteSpace=wrap;rounded=0;" parent="9xcHes1UZk4AMDX8wHXI-61" vertex="1">
          <mxGeometry x="5" y="150" width="265" height="30" as="geometry" />
        </mxCell>
        <mxCell id="9xcHes1UZk4AMDX8wHXI-150" value="&lt;div&gt;UsecaseFactory&lt;br&gt;&lt;/div&gt;" style="swimlane;whiteSpace=wrap;html=1;startSize=30;" parent="1" vertex="1">
          <mxGeometry x="1330" y="790" width="245" height="90" as="geometry" />
        </mxCell>
        <mxCell id="9xcHes1UZk4AMDX8wHXI-151" value="&lt;div align=&quot;left&quot;&gt;+ create_request(): RestAdapter&lt;br&gt;&lt;/div&gt;&lt;div align=&quot;left&quot;&gt;+ create_dispatchManager(): Exception&lt;br&gt;&lt;/div&gt;" style="text;html=1;align=left;verticalAlign=middle;whiteSpace=wrap;rounded=0;" parent="9xcHes1UZk4AMDX8wHXI-150" vertex="1">
          <mxGeometry x="5" y="40" width="225" height="30" as="geometry" />
        </mxCell>
        <mxCell id="9xcHes1UZk4AMDX8wHXI-166" value="" style="rounded=0;whiteSpace=wrap;html=1;" parent="1" vertex="1">
          <mxGeometry x="140" y="1630" width="410" height="320" as="geometry" />
        </mxCell>
        <mxCell id="9xcHes1UZk4AMDX8wHXI-167" value="" style="rounded=0;whiteSpace=wrap;html=1;" parent="1" vertex="1">
          <mxGeometry x="140" y="1610" width="80" height="20" as="geometry" />
        </mxCell>
        <mxCell id="9xcHes1UZk4AMDX8wHXI-168" value="Entity Layer" style="text;html=1;align=center;verticalAlign=middle;whiteSpace=wrap;rounded=0;" parent="1" vertex="1">
          <mxGeometry x="50" y="1715" width="100" height="30" as="geometry" />
        </mxCell>
        <mxCell id="9xcHes1UZk4AMDX8wHXI-169" value="IDispatch" style="swimlane;whiteSpace=wrap;html=1;startSize=30;" parent="1" vertex="1">
          <mxGeometry x="170" y="1675" width="130" height="110" as="geometry" />
        </mxCell>
        <mxCell id="9xcHes1UZk4AMDX8wHXI-170" value="+ dispatch_entity" style="text;html=1;align=left;verticalAlign=middle;whiteSpace=wrap;rounded=0;" parent="9xcHes1UZk4AMDX8wHXI-169" vertex="1">
          <mxGeometry x="10" y="40" width="110" height="30" as="geometry" />
        </mxCell>
        <mxCell id="9xcHes1UZk4AMDX8wHXI-175" style="edgeStyle=orthogonalEdgeStyle;rounded=0;orthogonalLoop=1;jettySize=auto;html=1;entryX=1;entryY=0.5;entryDx=0;entryDy=0;dashed=1;endArrow=block;endFill=0;" parent="1" source="9xcHes1UZk4AMDX8wHXI-171" target="9xcHes1UZk4AMDX8wHXI-169" edge="1">
          <mxGeometry relative="1" as="geometry" />
        </mxCell>
        <mxCell id="9xcHes1UZk4AMDX8wHXI-182" value="Implements" style="edgeLabel;html=1;align=center;verticalAlign=middle;resizable=0;points=[];" parent="9xcHes1UZk4AMDX8wHXI-175" vertex="1" connectable="0">
          <mxGeometry x="0.3259" y="4" relative="1" as="geometry">
            <mxPoint x="15" y="-16" as="offset" />
          </mxGeometry>
        </mxCell>
        <mxCell id="9xcHes1UZk4AMDX8wHXI-171" value="Dispatch" style="swimlane;whiteSpace=wrap;html=1;startSize=30;" parent="1" vertex="1">
          <mxGeometry x="400" y="1677.5" width="130" height="105" as="geometry" />
        </mxCell>
        <mxCell id="9xcHes1UZk4AMDX8wHXI-172" value="+ dispatch_entity" style="text;html=1;align=left;verticalAlign=middle;whiteSpace=wrap;rounded=0;" parent="9xcHes1UZk4AMDX8wHXI-171" vertex="1">
          <mxGeometry x="10" y="40" width="170" height="30" as="geometry" />
        </mxCell>
        <mxCell id="9xcHes1UZk4AMDX8wHXI-186" style="edgeStyle=orthogonalEdgeStyle;rounded=0;orthogonalLoop=1;jettySize=auto;html=1;dashed=1;endArrow=classic;endFill=1;entryX=0.17;entryY=-0.004;entryDx=0;entryDy=0;entryPerimeter=0;" parent="1" source="9xcHes1UZk4AMDX8wHXI-2" target="-PNvxuVEAzfp6yEy6_G5-14" edge="1">
          <mxGeometry relative="1" as="geometry">
            <mxPoint x="795" y="870" as="targetPoint" />
            <Array as="points">
              <mxPoint x="776" y="640" />
              <mxPoint x="776" y="640" />
            </Array>
          </mxGeometry>
        </mxCell>
        <mxCell id="9xcHes1UZk4AMDX8wHXI-187" value="Create" style="edgeLabel;html=1;align=center;verticalAlign=middle;resizable=0;points=[];" parent="9xcHes1UZk4AMDX8wHXI-186" vertex="1" connectable="0">
          <mxGeometry x="-0.2199" relative="1" as="geometry">
            <mxPoint as="offset" />
          </mxGeometry>
        </mxCell>
        <mxCell id="9xcHes1UZk4AMDX8wHXI-188" style="edgeStyle=orthogonalEdgeStyle;rounded=0;orthogonalLoop=1;jettySize=auto;html=1;entryX=0.5;entryY=1;entryDx=0;entryDy=0;exitX=0.75;exitY=1;exitDx=0;exitDy=0;dashed=1;" parent="1" source="9xcHes1UZk4AMDX8wHXI-2" target="9xcHes1UZk4AMDX8wHXI-37" edge="1">
          <mxGeometry relative="1" as="geometry" />
        </mxCell>
        <mxCell id="9xcHes1UZk4AMDX8wHXI-189" value="Create" style="edgeLabel;html=1;align=center;verticalAlign=middle;resizable=0;points=[];" parent="9xcHes1UZk4AMDX8wHXI-188" vertex="1" connectable="0">
          <mxGeometry x="0.1173" y="-1" relative="1" as="geometry">
            <mxPoint x="11" as="offset" />
          </mxGeometry>
        </mxCell>
        <mxCell id="9xcHes1UZk4AMDX8wHXI-199" style="edgeStyle=orthogonalEdgeStyle;rounded=0;orthogonalLoop=1;jettySize=auto;html=1;dashed=1;endArrow=block;endFill=0;" parent="1" source="9xcHes1UZk4AMDX8wHXI-16" edge="1">
          <mxGeometry relative="1" as="geometry">
            <Array as="points">
              <mxPoint x="1055" y="460" />
              <mxPoint x="1055" y="460" />
            </Array>
            <mxPoint x="1055" y="750" as="targetPoint" />
          </mxGeometry>
        </mxCell>
        <mxCell id="9xcHes1UZk4AMDX8wHXI-200" value="Implements" style="edgeLabel;html=1;align=center;verticalAlign=middle;resizable=0;points=[];" parent="9xcHes1UZk4AMDX8wHXI-199" vertex="1" connectable="0">
          <mxGeometry x="0.2502" relative="1" as="geometry">
            <mxPoint y="-18" as="offset" />
          </mxGeometry>
        </mxCell>
        <mxCell id="9xcHes1UZk4AMDX8wHXI-202" style="edgeStyle=orthogonalEdgeStyle;rounded=0;orthogonalLoop=1;jettySize=auto;html=1;dashed=1;endArrow=block;endFill=0;" parent="1" target="9xcHes1UZk4AMDX8wHXI-150" edge="1">
          <mxGeometry relative="1" as="geometry">
            <mxPoint x="1360.5769230769229" y="490" as="sourcePoint" />
            <mxPoint x="1360" y="790" as="targetPoint" />
            <Array as="points">
              <mxPoint x="1420" y="490" />
            </Array>
          </mxGeometry>
        </mxCell>
        <mxCell id="9xcHes1UZk4AMDX8wHXI-203" value="Implements" style="edgeLabel;html=1;align=center;verticalAlign=middle;resizable=0;points=[];" parent="9xcHes1UZk4AMDX8wHXI-202" vertex="1" connectable="0">
          <mxGeometry x="-0.2369" y="1" relative="1" as="geometry">
            <mxPoint x="4" y="53" as="offset" />
          </mxGeometry>
        </mxCell>
        <mxCell id="-PNvxuVEAzfp6yEy6_G5-72" style="edgeStyle=orthogonalEdgeStyle;rounded=0;orthogonalLoop=1;jettySize=auto;html=1;dashed=1;" parent="1" edge="1">
          <mxGeometry relative="1" as="geometry">
            <mxPoint x="730" y="1030" as="sourcePoint" />
            <mxPoint x="308" y="940" as="targetPoint" />
            <Array as="points">
              <mxPoint x="308" y="1030" />
            </Array>
          </mxGeometry>
        </mxCell>
        <mxCell id="-PNvxuVEAzfp6yEy6_G5-77" value="Use" style="edgeLabel;html=1;align=center;verticalAlign=middle;resizable=0;points=[];" parent="-PNvxuVEAzfp6yEy6_G5-72" vertex="1" connectable="0">
          <mxGeometry x="0.8155" y="-2" relative="1" as="geometry">
            <mxPoint as="offset" />
          </mxGeometry>
        </mxCell>
        <mxCell id="-PNvxuVEAzfp6yEy6_G5-14" value="&lt;div&gt;DispatchManager&lt;br&gt;&lt;/div&gt;" style="swimlane;whiteSpace=wrap;html=1;startSize=40;" parent="1" vertex="1">
          <mxGeometry x="730" y="750" width="270" height="290" as="geometry" />
        </mxCell>
        <mxCell id="-PNvxuVEAzfp6yEy6_G5-15" value="&lt;div align=&quot;left&quot;&gt;+ Create_delivery_callback(): Exception&lt;/div&gt;&lt;div align=&quot;left&quot;&gt;&lt;div align=&quot;left&quot;&gt;+ update_delivery_callback(): Exception&lt;/div&gt;&lt;div align=&quot;left&quot;&gt;+ get_delivery_callback(): Exception&lt;/div&gt;&lt;div align=&quot;left&quot;&gt;+ get_all_deliveries_callback(): Exception&lt;/div&gt;&lt;div align=&quot;left&quot;&gt;&amp;nbsp;&amp;nbsp; get_open_deliveries_callback(): Exception&lt;/div&gt;&lt;div align=&quot;left&quot;&gt;&amp;nbsp;&amp;nbsp; get_user_deliveries_callback(): Exception&lt;/div&gt;&lt;div align=&quot;left&quot;&gt;&amp;nbsp;&amp;nbsp; get_complete_deliveries_callback(): Exception&lt;/div&gt;&lt;div align=&quot;left&quot;&gt;&amp;nbsp;&amp;nbsp; archive_delivery_callback(): Exception&lt;/div&gt;&lt;div align=&quot;left&quot;&gt;&amp;nbsp;&amp;nbsp; create_order_callback(): Exception&lt;/div&gt;&lt;div align=&quot;left&quot;&gt;&amp;nbsp;&amp;nbsp; update_order_callback(): Exception&lt;/div&gt;&lt;div align=&quot;left&quot;&gt;&amp;nbsp;&amp;nbsp; partial_update_order_callback(): Exception&lt;/div&gt;&lt;div align=&quot;left&quot;&gt;&amp;nbsp;&amp;nbsp; get_orders_callback(): Exception&lt;/div&gt;&lt;div align=&quot;left&quot;&gt;&amp;nbsp;&amp;nbsp; get_dispatch_callback(): Exception&lt;/div&gt;&lt;div align=&quot;left&quot;&gt;&amp;nbsp;&amp;nbsp; partial_update_order_callback(): Exception&lt;/div&gt;&lt;div align=&quot;left&quot;&gt;&amp;nbsp;&amp;nbsp; update_order_callback(): Exception&lt;br&gt;&lt;/div&gt;&lt;div align=&quot;left&quot;&gt;&lt;br&gt;&lt;/div&gt;&lt;div align=&quot;left&quot;&gt;&lt;br&gt;&lt;/div&gt;&lt;div align=&quot;left&quot;&gt;&lt;br&gt;&lt;/div&gt;&lt;div align=&quot;left&quot;&gt;&lt;br&gt;&lt;/div&gt;&lt;div align=&quot;left&quot;&gt;&lt;br&gt;&lt;br&gt;&lt;/div&gt;&lt;/div&gt;" style="text;html=1;align=left;verticalAlign=middle;whiteSpace=wrap;rounded=0;" parent="-PNvxuVEAzfp6yEy6_G5-14" vertex="1">
          <mxGeometry x="10" y="190" width="265" height="30" as="geometry" />
        </mxCell>
        <mxCell id="-PNvxuVEAzfp6yEy6_G5-26" value="&lt;div&gt;&amp;lt;&amp;lt;Interface&amp;gt;&amp;gt;&lt;/div&gt;&lt;div&gt;IRequest&lt;br&gt;&lt;/div&gt;" style="swimlane;whiteSpace=wrap;html=1;startSize=30;" parent="1" vertex="1">
          <mxGeometry x="1030" y="750" width="290" height="290" as="geometry" />
        </mxCell>
        <mxCell id="-PNvxuVEAzfp6yEy6_G5-27" value="&lt;div align=&quot;left&quot;&gt;+ create_delivery_subscription: Exception&lt;/div&gt;&lt;div align=&quot;left&quot;&gt;+ update_delivery_subscription: Exception&lt;/div&gt;&lt;div align=&quot;left&quot;&gt;&lt;div align=&quot;left&quot;&gt;+ get_delivery_subscription: Exception&lt;/div&gt;&lt;div align=&quot;left&quot;&gt;&lt;div align=&quot;left&quot;&gt;+ get_all_deliveries_subscription: Exception&lt;/div&gt;&lt;/div&gt;&lt;/div&gt;&lt;div align=&quot;left&quot;&gt;&amp;nbsp;&amp;nbsp; get_open_deliveries_subscription: Exception&lt;/div&gt;&lt;div align=&quot;left&quot;&gt;&amp;nbsp;&amp;nbsp; get_user_deliveries_subscription: Exception&lt;/div&gt;&lt;div align=&quot;left&quot;&gt;&amp;nbsp;&amp;nbsp; get_complete_deliveries_subscription: Exception&lt;/div&gt;&lt;div align=&quot;left&quot;&gt;&amp;nbsp;&amp;nbsp; archive_delivery_subscription: Exception&lt;/div&gt;&lt;div align=&quot;left&quot;&gt;&amp;nbsp;&amp;nbsp; create_order_subscription: Exception&lt;/div&gt;&lt;div align=&quot;left&quot;&gt;&amp;nbsp;&amp;nbsp; update_order_subscription: Exception&lt;/div&gt;&lt;div align=&quot;left&quot;&gt;&amp;nbsp;&amp;nbsp; partial_update_order_subscription: Exception&lt;/div&gt;&lt;div align=&quot;left&quot;&gt;&amp;nbsp;&amp;nbsp; get_orders_subscription: Exception&lt;/div&gt;&lt;div align=&quot;left&quot;&gt;&amp;nbsp;&amp;nbsp; get_dispatch_subscription: Exception&lt;/div&gt;&lt;div align=&quot;left&quot;&gt;&amp;nbsp;&amp;nbsp; dispatch_order_subscription: Exception&lt;/div&gt;&lt;div align=&quot;left&quot;&gt;&amp;nbsp;&amp;nbsp; partial_update_order_subscription: Exception&lt;/div&gt;&lt;div align=&quot;left&quot;&gt;&amp;nbsp;&amp;nbsp; update_order_subscription: Exception&lt;br&gt;&lt;/div&gt;&lt;div align=&quot;left&quot;&gt;&lt;br&gt;&lt;/div&gt;&lt;div align=&quot;left&quot;&gt;&lt;br&gt;&lt;/div&gt;&lt;div align=&quot;left&quot;&gt;&lt;br&gt;&lt;/div&gt;&lt;div align=&quot;left&quot;&gt;&lt;br&gt;&lt;/div&gt;&lt;div align=&quot;left&quot;&gt;&lt;br&gt;&lt;br&gt;&lt;/div&gt;" style="text;html=1;align=center;verticalAlign=middle;whiteSpace=wrap;rounded=0;" parent="-PNvxuVEAzfp6yEy6_G5-26" vertex="1">
          <mxGeometry x="-20" y="190" width="330" height="30" as="geometry" />
        </mxCell>
        <mxCell id="-PNvxuVEAzfp6yEy6_G5-29" style="edgeStyle=orthogonalEdgeStyle;rounded=0;orthogonalLoop=1;jettySize=auto;html=1;dashed=1;" parent="1" edge="1">
          <mxGeometry relative="1" as="geometry">
            <mxPoint x="850" y="1050" as="sourcePoint" />
            <mxPoint x="1440" y="880" as="targetPoint" />
            <Array as="points">
              <mxPoint x="850" y="1110" />
              <mxPoint x="1440" y="1110" />
            </Array>
          </mxGeometry>
        </mxCell>
        <mxCell id="-PNvxuVEAzfp6yEy6_G5-30" value="Use" style="edgeLabel;html=1;align=center;verticalAlign=middle;resizable=0;points=[];" parent="-PNvxuVEAzfp6yEy6_G5-29" vertex="1" connectable="0">
          <mxGeometry x="0.7702" y="-2" relative="1" as="geometry">
            <mxPoint as="offset" />
          </mxGeometry>
        </mxCell>
        <mxCell id="-PNvxuVEAzfp6yEy6_G5-32" style="edgeStyle=orthogonalEdgeStyle;rounded=0;orthogonalLoop=1;jettySize=auto;html=1;entryX=1;entryY=0.75;entryDx=0;entryDy=0;dashed=1;" parent="1" edge="1">
          <mxGeometry relative="1" as="geometry">
            <mxPoint x="1270" y="490" as="sourcePoint" />
            <mxPoint x="490" y="490.03" as="targetPoint" />
            <Array as="points">
              <mxPoint x="930" y="490" />
              <mxPoint x="930" y="490" />
            </Array>
          </mxGeometry>
        </mxCell>
        <mxCell id="-PNvxuVEAzfp6yEy6_G5-35" value="Create" style="edgeLabel;html=1;align=center;verticalAlign=middle;resizable=0;points=[];" parent="-PNvxuVEAzfp6yEy6_G5-32" vertex="1" connectable="0">
          <mxGeometry x="0.9034" y="1" relative="1" as="geometry">
            <mxPoint as="offset" />
          </mxGeometry>
        </mxCell>
        <mxCell id="-PNvxuVEAzfp6yEy6_G5-50" value="&lt;div&gt;&amp;lt;&amp;lt;Interface&amp;gt;&amp;gt;&lt;/div&gt;&lt;div&gt;IOrder&lt;br&gt;&lt;/div&gt;" style="swimlane;whiteSpace=wrap;html=1;startSize=40;" parent="1" vertex="1">
          <mxGeometry x="170" y="750" width="270" height="190" as="geometry" />
        </mxCell>
        <mxCell id="-PNvxuVEAzfp6yEy6_G5-51" value="&lt;div align=&quot;left&quot;&gt;&lt;div align=&quot;left&quot;&gt;&amp;nbsp;&amp;nbsp; create_order_callback(): Exception&lt;/div&gt;&lt;div align=&quot;left&quot;&gt;&amp;nbsp;&amp;nbsp; update_order_callback(): Exception&lt;/div&gt;&lt;div align=&quot;left&quot;&gt;&amp;nbsp;&amp;nbsp; partial_update_order_callback(): Exception&lt;/div&gt;&lt;div align=&quot;left&quot;&gt;&amp;nbsp;&amp;nbsp; get_orders_callback(): Exception&lt;/div&gt;&lt;div align=&quot;left&quot;&gt;&amp;nbsp;&amp;nbsp; get_dispatch_callback(): Exception&lt;/div&gt;&lt;div align=&quot;left&quot;&gt;&amp;nbsp;&amp;nbsp; partial_update_order_callback(): Exception&lt;/div&gt;&lt;div align=&quot;left&quot;&gt;&amp;nbsp;&amp;nbsp; update_order_callback(): Exception&lt;br&gt;&lt;/div&gt;&lt;div align=&quot;left&quot;&gt;&lt;br&gt;&lt;/div&gt;&lt;div align=&quot;left&quot;&gt;&lt;br&gt;&lt;/div&gt;&lt;div align=&quot;left&quot;&gt;&lt;br&gt;&lt;/div&gt;&lt;div align=&quot;left&quot;&gt;&lt;br&gt;&lt;/div&gt;&lt;div align=&quot;left&quot;&gt;&lt;br&gt;&lt;br&gt;&lt;/div&gt;&lt;/div&gt;" style="text;html=1;align=left;verticalAlign=middle;whiteSpace=wrap;rounded=0;" parent="-PNvxuVEAzfp6yEy6_G5-50" vertex="1">
          <mxGeometry x="5" y="140" width="265" height="40" as="geometry" />
        </mxCell>
        <mxCell id="-PNvxuVEAzfp6yEy6_G5-54" style="edgeStyle=orthogonalEdgeStyle;rounded=0;orthogonalLoop=1;jettySize=auto;html=1;endArrow=block;endFill=0;dashed=1;" parent="1" source="9xcHes1UZk4AMDX8wHXI-9" target="9xcHes1UZk4AMDX8wHXI-61" edge="1">
          <mxGeometry relative="1" as="geometry">
            <Array as="points">
              <mxPoint x="565" y="550" />
              <mxPoint x="565" y="550" />
            </Array>
          </mxGeometry>
        </mxCell>
        <mxCell id="-PNvxuVEAzfp6yEy6_G5-55" value="Implements" style="edgeLabel;html=1;align=center;verticalAlign=middle;resizable=0;points=[];" parent="-PNvxuVEAzfp6yEy6_G5-54" vertex="1" connectable="0">
          <mxGeometry x="-0.054" y="1" relative="1" as="geometry">
            <mxPoint x="4" y="38" as="offset" />
          </mxGeometry>
        </mxCell>
        <mxCell id="-PNvxuVEAzfp6yEy6_G5-56" style="edgeStyle=orthogonalEdgeStyle;rounded=0;orthogonalLoop=1;jettySize=auto;html=1;endArrow=block;endFill=0;dashed=1;entryX=0.5;entryY=0;entryDx=0;entryDy=0;" parent="1" target="-PNvxuVEAzfp6yEy6_G5-50" edge="1">
          <mxGeometry relative="1" as="geometry">
            <mxPoint x="520" y="450" as="sourcePoint" />
            <mxPoint x="575" y="820" as="targetPoint" />
            <Array as="points">
              <mxPoint x="520" y="600" />
              <mxPoint x="305" y="600" />
            </Array>
          </mxGeometry>
        </mxCell>
        <mxCell id="-PNvxuVEAzfp6yEy6_G5-58" value="Implements" style="edgeLabel;html=1;align=center;verticalAlign=middle;resizable=0;points=[];" parent="-PNvxuVEAzfp6yEy6_G5-56" vertex="1" connectable="0">
          <mxGeometry x="0.7318" y="1" relative="1" as="geometry">
            <mxPoint x="4" y="-52" as="offset" />
          </mxGeometry>
        </mxCell>
        <mxCell id="-PNvxuVEAzfp6yEy6_G5-65" style="edgeStyle=orthogonalEdgeStyle;rounded=0;orthogonalLoop=1;jettySize=auto;html=1;dashed=1;" parent="1" edge="1">
          <mxGeometry relative="1" as="geometry">
            <mxPoint x="730" y="990" as="sourcePoint" />
            <mxPoint x="590" y="940" as="targetPoint" />
            <Array as="points">
              <mxPoint x="590" y="991" />
            </Array>
          </mxGeometry>
        </mxCell>
        <mxCell id="-PNvxuVEAzfp6yEy6_G5-66" value="Use" style="edgeLabel;html=1;align=center;verticalAlign=middle;resizable=0;points=[];" parent="-PNvxuVEAzfp6yEy6_G5-65" vertex="1" connectable="0">
          <mxGeometry x="0.6175" relative="1" as="geometry">
            <mxPoint x="-2" y="-7" as="offset" />
          </mxGeometry>
        </mxCell>
        <mxCell id="-PNvxuVEAzfp6yEy6_G5-79" style="edgeStyle=orthogonalEdgeStyle;rounded=0;orthogonalLoop=1;jettySize=auto;html=1;dashed=1;" parent="1" edge="1">
          <mxGeometry relative="1" as="geometry">
            <mxPoint x="940" y="1040" as="sourcePoint" />
            <mxPoint x="1190" y="1040" as="targetPoint" />
            <Array as="points">
              <mxPoint x="940" y="1070" />
              <mxPoint x="1190" y="1070" />
            </Array>
          </mxGeometry>
        </mxCell>
        <mxCell id="-PNvxuVEAzfp6yEy6_G5-80" value="Use" style="edgeLabel;html=1;align=center;verticalAlign=middle;resizable=0;points=[];" parent="-PNvxuVEAzfp6yEy6_G5-79" vertex="1" connectable="0">
          <mxGeometry x="0.7702" y="-2" relative="1" as="geometry">
            <mxPoint x="-134" y="-2" as="offset" />
          </mxGeometry>
        </mxCell>
        <mxCell id="-PNvxuVEAzfp6yEy6_G5-86" value="IOrder" style="swimlane;whiteSpace=wrap;html=1;startSize=30;" parent="1" vertex="1">
          <mxGeometry x="170" y="1820" width="130" height="110" as="geometry" />
        </mxCell>
        <mxCell id="-PNvxuVEAzfp6yEy6_G5-87" value="+ order_entity" style="text;html=1;align=left;verticalAlign=middle;whiteSpace=wrap;rounded=0;" parent="-PNvxuVEAzfp6yEy6_G5-86" vertex="1">
          <mxGeometry x="10" y="40" width="110" height="30" as="geometry" />
        </mxCell>
        <mxCell id="-PNvxuVEAzfp6yEy6_G5-90" style="edgeStyle=orthogonalEdgeStyle;rounded=0;orthogonalLoop=1;jettySize=auto;html=1;entryX=1;entryY=0.5;entryDx=0;entryDy=0;endArrow=block;endFill=0;dashed=1;" parent="1" source="-PNvxuVEAzfp6yEy6_G5-88" target="-PNvxuVEAzfp6yEy6_G5-86" edge="1">
          <mxGeometry relative="1" as="geometry" />
        </mxCell>
        <mxCell id="-PNvxuVEAzfp6yEy6_G5-92" value="Implements" style="edgeLabel;html=1;align=center;verticalAlign=middle;resizable=0;points=[];" parent="-PNvxuVEAzfp6yEy6_G5-90" vertex="1" connectable="0">
          <mxGeometry x="0.2" y="-3" relative="1" as="geometry">
            <mxPoint x="5" y="-9" as="offset" />
          </mxGeometry>
        </mxCell>
        <mxCell id="-PNvxuVEAzfp6yEy6_G5-88" value="Order" style="swimlane;whiteSpace=wrap;html=1;startSize=30;" parent="1" vertex="1">
          <mxGeometry x="400" y="1822.5" width="130" height="105" as="geometry" />
        </mxCell>
        <mxCell id="-PNvxuVEAzfp6yEy6_G5-89" value="+ order_entity" style="text;html=1;align=left;verticalAlign=middle;whiteSpace=wrap;rounded=0;" parent="-PNvxuVEAzfp6yEy6_G5-88" vertex="1">
          <mxGeometry x="10" y="40" width="170" height="30" as="geometry" />
        </mxCell>
      </root>
    </mxGraphModel>
  </diagram>
</mxfile>
